<?xml version="1.0" encoding="UTF-8" standalone="no"?>
<!DOCTYPE svg PUBLIC "-//W3C//DTD SVG 1.1//EN"
 "http://www.w3.org/Graphics/SVG/1.1/DTD/svg11.dtd">
<!-- Generated by graphviz version 9.0.0 (0)
 -->
<!-- Title: G Pages: 1 -->
<svg width="5171pt" height="391pt"
 viewBox="0.00 0.00 5171.00 390.81" xmlns="http://www.w3.org/2000/svg" xmlns:xlink="http://www.w3.org/1999/xlink">
<g id="graph0" class="graph" transform="scale(1 1) rotate(0) translate(4 386.81)">
<title>G</title>
<polygon fill="white" stroke="none" points="-4,4 -4,-386.81 5167,-386.81 5167,4 -4,4"/>
<g id="clust1" class="cluster">
<title>cluster_G</title>
<path fill="#808080" fill-opacity="0.094118" stroke="black" d="M20,-8C20,-8 5143,-8 5143,-8 5149,-8 5155,-14 5155,-20 5155,-20 5155,-362.81 5155,-362.81 5155,-368.81 5149,-374.81 5143,-374.81 5143,-374.81 20,-374.81 20,-374.81 14,-374.81 8,-368.81 8,-362.81 8,-362.81 8,-20 8,-20 8,-14 14,-8 20,-8"/>
</g>
<g id="clust2" class="cluster">
<title>cluster_pyan__nodeX</title>
<path fill="#808080" fill-opacity="0.094118" stroke="black" d="M1063,-221.46C1063,-221.46 3058,-221.46 3058,-221.46 3064,-221.46 3070,-227.46 3070,-233.46 3070,-233.46 3070,-310.81 3070,-310.81 3070,-316.81 3064,-322.81 3058,-322.81 3058,-322.81 1063,-322.81 1063,-322.81 1057,-322.81 1051,-316.81 1051,-310.81 1051,-310.81 1051,-233.46 1051,-233.46 1051,-227.46 1057,-221.46 1063,-221.46"/>
<text text-anchor="middle" x="2060.5" y="-305.51" font-family="Times,serif" font-size="14.00">pyan.node</text>
</g>
<g id="clust3" class="cluster">
<title>cluster_pyan__nodeX__Flavor</title>
<path fill="#808080" fill-opacity="0.094118" stroke="black" d="M28,-112.1C28,-112.1 1006,-112.1 1006,-112.1 1012,-112.1 1018,-118.1 1018,-124.1 1018,-124.1 1018,-201.46 1018,-201.46 1018,-207.46 1012,-213.46 1006,-213.46 1006,-213.46 28,-213.46 28,-213.46 22,-213.46 16,-207.46 16,-201.46 16,-201.46 16,-124.1 16,-124.1 16,-118.1 22,-112.1 28,-112.1"/>
<text text-anchor="middle" x="517" y="-196.16" font-family="Times,serif" font-size="14.00">pyan.node.Flavor</text>
</g>
<g id="clust4" class="cluster">
<title>cluster_pyan__nodeX__Node</title>
<path fill="#808080" fill-opacity="0.094118" stroke="black" d="M1038,-16C1038,-16 5103,-16 5103,-16 5109,-16 5115,-22 5115,-28 5115,-28 5115,-201.46 5115,-201.46 5115,-207.46 5109,-213.46 5103,-213.46 5103,-213.46 1038,-213.46 1038,-213.46 1032,-213.46 1026,-207.46 1026,-201.46 1026,-201.46 1026,-28 1026,-28 1026,-22 1032,-16 1038,-16"/>
<text text-anchor="middle" x="3070.5" y="-196.16" font-family="Times,serif" font-size="14.00">pyan.node.Node</text>
</g>
<!-- pyan__nodeX -->
<g id="node1" class="node">
<title>pyan__nodeX</title>
<ellipse fill="#ffffff" fill-opacity="0.698039" stroke="black" cx="1797" cy="-348.81" rx="62.78" ry="18"/>
<text text-anchor="middle" x="1797" y="-344.14" font-family="Times,serif" font-size="14.00" fill="#000000">pyan.node</text>
</g>
<!-- pyan__nodeX__Flavor -->
<g id="node2" class="node">
<title>pyan__nodeX__Flavor</title>
<ellipse fill="#ff9999" fill-opacity="0.698039" stroke="black" cx="1301" cy="-259.51" rx="242.01" ry="30.05"/>
<text text-anchor="middle" x="1301" y="-263.46" font-family="Times,serif" font-size="14.00" fill="#000000">Flavor</text>
<text text-anchor="middle" x="1301" y="-246.21" font-family="Times,serif" font-size="14.00" fill="#000000">(/home/lucianoleao/src/pyan/pyan/node.py:18)</text>
</g>
<!-- pyan__nodeX&#45;&gt;pyan__nodeX__Flavor -->
<g id="edge1" class="edge">
<title>pyan__nodeX&#45;&gt;pyan__nodeX__Flavor</title>
<path fill="none" stroke="#838b8b" stroke-dasharray="5,2" d="M1736.01,-344C1686.24,-340.31 1614.23,-333.65 1552,-322.81 1504.09,-314.46 1451.78,-302.03 1407.38,-290.45"/>
<polygon fill="#838b8b" stroke="#838b8b" points="1408.3,-287.08 1397.73,-287.92 1406.52,-293.85 1408.3,-287.08"/>
</g>
<!-- pyan__nodeX__Node -->
<g id="node3" class="node">
<title>pyan__nodeX__Node</title>
<ellipse fill="#ff9999" fill-opacity="0.698039" stroke="black" cx="2820" cy="-259.51" rx="242.01" ry="30.05"/>
<text text-anchor="middle" x="2820" y="-263.46" font-family="Times,serif" font-size="14.00" fill="#000000">Node</text>
<text text-anchor="middle" x="2820" y="-246.21" font-family="Times,serif" font-size="14.00" fill="#000000">(/home/lucianoleao/src/pyan/pyan/node.py:57)</text>
</g>
<!-- pyan__nodeX&#45;&gt;pyan__nodeX__Node -->
<g id="edge2" class="edge">
<title>pyan__nodeX&#45;&gt;pyan__nodeX__Node</title>
<path fill="none" stroke="#838b8b" stroke-dasharray="5,2" d="M1856.42,-342.74C2000.61,-330.44 2374.62,-298.52 2612,-278.26"/>
<polygon fill="#838b8b" stroke="#838b8b" points="2612.02,-281.77 2621.69,-277.43 2611.43,-274.8 2612.02,-281.77"/>
</g>
<!-- pyan__nodeX__make_safe_label -->
<g id="node4" class="node">
<title>pyan__nodeX__make_safe_label</title>
<ellipse fill="#ff9999" fill-opacity="0.698039" stroke="black" cx="1797" cy="-259.51" rx="235.64" ry="30.05"/>
<text text-anchor="middle" x="1797" y="-263.46" font-family="Times,serif" font-size="14.00" fill="#000000">make_safe_label</text>
<text text-anchor="middle" x="1797" y="-246.21" font-family="Times,serif" font-size="14.00" fill="#000000">(/home/lucianoleao/src/pyan/pyan/node.py:9)</text>
</g>
<!-- pyan__nodeX&#45;&gt;pyan__nodeX__make_safe_label -->
<g id="edge3" class="edge">
<title>pyan__nodeX&#45;&gt;pyan__nodeX__make_safe_label</title>
<path fill="none" stroke="#838b8b" stroke-dasharray="5,2" d="M1797,-330.56C1797,-322.12 1797,-311.55 1797,-301.21"/>
<polygon fill="#838b8b" stroke="#838b8b" points="1800.5,-301.27 1797,-291.27 1793.5,-301.27 1800.5,-301.27"/>
</g>
<!-- pyan__nodeX__Flavor____repr__ -->
<g id="node5" class="node">
<title>pyan__nodeX__Flavor____repr__</title>
<ellipse fill="#ff6565" fill-opacity="0.698039" stroke="black" cx="768" cy="-150.16" rx="242.01" ry="30.05"/>
<text text-anchor="middle" x="768" y="-154.11" font-family="Times,serif" font-size="14.00" fill="#000000">__repr__</text>
<text text-anchor="middle" x="768" y="-136.86" font-family="Times,serif" font-size="14.00" fill="#000000">(/home/lucianoleao/src/pyan/pyan/node.py:53)</text>
</g>
<!-- pyan__nodeX__Flavor&#45;&gt;pyan__nodeX__Flavor____repr__ -->
<g id="edge5" class="edge">
<title>pyan__nodeX__Flavor&#45;&gt;pyan__nodeX__Flavor____repr__</title>
<path fill="none" stroke="#838b8b" stroke-dasharray="5,2" d="M1147.1,-235.93C1106.31,-229.33 1062.39,-221.66 1022,-213.46 975.24,-203.96 924.06,-191.76 879.98,-180.68"/>
<polygon fill="#838b8b" stroke="#838b8b" points="880.95,-177.32 870.4,-178.26 879.24,-184.1 880.95,-177.32"/>
</g>
<!-- pyan__nodeX__Flavor__specificity -->
<g id="node6" class="node">
<title>pyan__nodeX__Flavor__specificity</title>
<ellipse fill="#ff6565" fill-opacity="0.698039" stroke="black" cx="266" cy="-150.16" rx="242.01" ry="30.05"/>
<text text-anchor="middle" x="266" y="-154.11" font-family="Times,serif" font-size="14.00" fill="#000000">specificity</text>
<text text-anchor="middle" x="266" y="-136.86" font-family="Times,serif" font-size="14.00" fill="#000000">(/home/lucianoleao/src/pyan/pyan/node.py:43)</text>
</g>
<!-- pyan__nodeX__Flavor&#45;&gt;pyan__nodeX__Flavor__specificity -->
<g id="edge4" class="edge">
<title>pyan__nodeX__Flavor&#45;&gt;pyan__nodeX__Flavor__specificity</title>
<path fill="none" stroke="#838b8b" stroke-dasharray="5,2" d="M1060.05,-256.22C904.35,-251.9 697.8,-240.85 517,-213.46 467.79,-206 414.13,-193.32 369.1,-181.34"/>
<polygon fill="#838b8b" stroke="#838b8b" points="370.17,-178 359.61,-178.78 368.36,-184.76 370.17,-178"/>
</g>
<!-- pyan__nodeX__Node____init__ -->
<g id="node7" class="node">
<title>pyan__nodeX__Node____init__</title>
<ellipse fill="#ff6565" fill-opacity="0.698039" stroke="black" cx="3836" cy="-150.16" rx="242.01" ry="30.05"/>
<text text-anchor="middle" x="3836" y="-154.11" font-family="Times,serif" font-size="14.00" fill="#000000">__init__</text>
<text text-anchor="middle" x="3836" y="-136.86" font-family="Times,serif" font-size="14.00" fill="#000000">(/home/lucianoleao/src/pyan/pyan/node.py:90)</text>
</g>
<!-- pyan__nodeX__Node&#45;&gt;pyan__nodeX__Node____init__ -->
<g id="edge15" class="edge">
<title>pyan__nodeX__Node&#45;&gt;pyan__nodeX__Node____init__</title>
<path fill="none" stroke="#838b8b" stroke-dasharray="5,2" d="M3060.23,-255.71C3211.54,-251.14 3410.56,-240.01 3585,-213.46 3634.21,-205.97 3687.87,-193.28 3732.89,-181.3"/>
<polygon fill="#838b8b" stroke="#838b8b" points="3733.64,-184.73 3742.39,-178.75 3731.82,-177.97 3733.64,-184.73"/>
</g>
<!-- pyan__nodeX__Node____repr__ -->
<g id="node8" class="node">
<title>pyan__nodeX__Node____repr__</title>
<ellipse fill="#ff6565" fill-opacity="0.698039" stroke="black" cx="3328" cy="-150.16" rx="248.37" ry="30.05"/>
<text text-anchor="middle" x="3328" y="-154.11" font-family="Times,serif" font-size="14.00" fill="#000000">__repr__</text>
<text text-anchor="middle" x="3328" y="-136.86" font-family="Times,serif" font-size="14.00" fill="#000000">(/home/lucianoleao/src/pyan/pyan/node.py:181)</text>
</g>
<!-- pyan__nodeX__Node&#45;&gt;pyan__nodeX__Node____repr__ -->
<g id="edge11" class="edge">
<title>pyan__nodeX__Node&#45;&gt;pyan__nodeX__Node____repr__</title>
<path fill="none" stroke="#838b8b" stroke-dasharray="5,2" d="M2961.01,-234.74C2996.96,-228.26 3035.48,-220.94 3071,-213.46 3117.59,-203.64 3168.61,-191.55 3212.83,-180.64"/>
<polygon fill="#838b8b" stroke="#838b8b" points="3213.58,-184.06 3222.44,-178.26 3211.9,-177.27 3213.58,-184.06"/>
</g>
<!-- pyan__nodeX__Node__get_annotated_name -->
<g id="node9" class="node">
<title>pyan__nodeX__Node__get_annotated_name</title>
<ellipse fill="#ff6565" fill-opacity="0.698039" stroke="black" cx="4859" cy="-150.16" rx="248.37" ry="30.05"/>
<text text-anchor="middle" x="4859" y="-154.11" font-family="Times,serif" font-size="14.00" fill="#000000">get_annotated_name</text>
<text text-anchor="middle" x="4859" y="-136.86" font-family="Times,serif" font-size="14.00" fill="#000000">(/home/lucianoleao/src/pyan/pyan/node.py:107)</text>
</g>
<!-- pyan__nodeX__Node&#45;&gt;pyan__nodeX__Node__get_annotated_name -->
<g id="edge13" class="edge">
<title>pyan__nodeX__Node&#45;&gt;pyan__nodeX__Node__get_annotated_name</title>
<path fill="none" stroke="#838b8b" stroke-dasharray="5,2" d="M3062.16,-258.72C3478.02,-258.02 4311.12,-251.69 4601,-213.46 4652.6,-206.65 4708.89,-193.73 4755.68,-181.4"/>
<polygon fill="#838b8b" stroke="#838b8b" points="4756.52,-184.8 4765.28,-178.84 4754.72,-178.04 4756.52,-184.8"/>
</g>
<!-- pyan__nodeX__Node__get_label -->
<g id="node10" class="node">
<title>pyan__nodeX__Node__get_label</title>
<ellipse fill="#ff6565" fill-opacity="0.698039" stroke="black" cx="1282" cy="-150.16" rx="248.37" ry="30.05"/>
<text text-anchor="middle" x="1282" y="-154.11" font-family="Times,serif" font-size="14.00" fill="#000000">get_label</text>
<text text-anchor="middle" x="1282" y="-136.86" font-family="Times,serif" font-size="14.00" fill="#000000">(/home/lucianoleao/src/pyan/pyan/node.py:167)</text>
</g>
<!-- pyan__nodeX__Node&#45;&gt;pyan__nodeX__Node__get_label -->
<g id="edge12" class="edge">
<title>pyan__nodeX__Node&#45;&gt;pyan__nodeX__Node__get_label</title>
<path fill="none" stroke="#838b8b" stroke-dasharray="5,2" d="M2601.68,-246.26C2445.77,-237.97 2231.05,-227.46 2042,-221.46 1930.49,-217.92 1650.68,-227.53 1540,-213.46 1488.16,-206.87 1431.62,-193.89 1384.71,-181.48"/>
<polygon fill="#838b8b" stroke="#838b8b" points="1385.65,-178.11 1375.09,-178.9 1383.84,-184.87 1385.65,-178.11"/>
</g>
<!-- pyan__nodeX__Node__get_level -->
<g id="node11" class="node">
<title>pyan__nodeX__Node__get_level</title>
<ellipse fill="#ff6565" fill-opacity="0.698039" stroke="black" cx="4859" cy="-54.05" rx="248.37" ry="30.05"/>
<text text-anchor="middle" x="4859" y="-58" font-family="Times,serif" font-size="14.00" fill="#000000">get_level</text>
<text text-anchor="middle" x="4859" y="-40.75" font-family="Times,serif" font-size="14.00" fill="#000000">(/home/lucianoleao/src/pyan/pyan/node.py:142)</text>
</g>
<!-- pyan__nodeX__Node&#45;&gt;pyan__nodeX__Node__get_level -->
<g id="edge6" class="edge">
<title>pyan__nodeX__Node&#45;&gt;pyan__nodeX__Node__get_level</title>
<path fill="none" stroke="#838b8b" stroke-dasharray="5,2" d="M3062.18,-258.21C3647.97,-256.92 5096.14,-250.02 5132,-213.46 5163.54,-181.3 5160.41,-147.06 5132,-112.1 5119.65,-96.91 5087.84,-85.62 5050.11,-77.28"/>
<polygon fill="#838b8b" stroke="#838b8b" points="5051.31,-73.96 5040.81,-75.32 5049.87,-80.81 5051.31,-73.96"/>
</g>
<!-- pyan__nodeX__Node__get_long_annotated_name -->
<g id="node12" class="node">
<title>pyan__nodeX__Node__get_long_annotated_name</title>
<ellipse fill="#ff6565" fill-opacity="0.698039" stroke="black" cx="4344" cy="-150.16" rx="248.37" ry="30.05"/>
<text text-anchor="middle" x="4344" y="-154.11" font-family="Times,serif" font-size="14.00" fill="#000000">get_long_annotated_name</text>
<text text-anchor="middle" x="4344" y="-136.86" font-family="Times,serif" font-size="14.00" fill="#000000">(/home/lucianoleao/src/pyan/pyan/node.py:118)</text>
</g>
<!-- pyan__nodeX__Node&#45;&gt;pyan__nodeX__Node__get_long_annotated_name -->
<g id="edge10" class="edge">
<title>pyan__nodeX__Node&#45;&gt;pyan__nodeX__Node__get_long_annotated_name</title>
<path fill="none" stroke="#838b8b" stroke-dasharray="5,2" d="M3060.63,-255.75C3371.58,-251.17 3895.73,-239.77 4087,-213.46 4138.05,-206.44 4193.75,-193.59 4240.2,-181.38"/>
<polygon fill="#838b8b" stroke="#838b8b" points="4240.95,-184.8 4249.72,-178.85 4239.16,-178.04 4240.95,-184.8"/>
</g>
<!-- pyan__nodeX__Node__get_name -->
<g id="node13" class="node">
<title>pyan__nodeX__Node__get_name</title>
<ellipse fill="#ff6565" fill-opacity="0.698039" stroke="black" cx="3328" cy="-54.05" rx="248.37" ry="30.05"/>
<text text-anchor="middle" x="3328" y="-58" font-family="Times,serif" font-size="14.00" fill="#000000">get_name</text>
<text text-anchor="middle" x="3328" y="-40.75" font-family="Times,serif" font-size="14.00" fill="#000000">(/home/lucianoleao/src/pyan/pyan/node.py:132)</text>
</g>
<!-- pyan__nodeX__Node&#45;&gt;pyan__nodeX__Node__get_name -->
<g id="edge14" class="edge">
<title>pyan__nodeX__Node&#45;&gt;pyan__nodeX__Node__get_name</title>
<path fill="none" stroke="#838b8b" stroke-dasharray="5,2" d="M3062.11,-258.18C3644.88,-256.8 5080.43,-249.74 5116,-213.46 5147.54,-181.29 5147.34,-144.46 5116,-112.1 5102.84,-98.51 4072.67,-72.53 3582.2,-60.92"/>
<polygon fill="#838b8b" stroke="#838b8b" points="3582.31,-57.42 3572.23,-60.68 3582.14,-64.42 3582.31,-57.42"/>
</g>
<!-- pyan__nodeX__Node__get_namespace_label -->
<g id="node14" class="node">
<title>pyan__nodeX__Node__get_namespace_label</title>
<ellipse fill="#ff6565" fill-opacity="0.698039" stroke="black" cx="1797" cy="-150.16" rx="248.37" ry="30.05"/>
<text text-anchor="middle" x="1797" y="-154.11" font-family="Times,serif" font-size="14.00" fill="#000000">get_namespace_label</text>
<text text-anchor="middle" x="1797" y="-136.86" font-family="Times,serif" font-size="14.00" fill="#000000">(/home/lucianoleao/src/pyan/pyan/node.py:174)</text>
</g>
<!-- pyan__nodeX__Node&#45;&gt;pyan__nodeX__Node__get_namespace_label -->
<g id="edge7" class="edge">
<title>pyan__nodeX__Node&#45;&gt;pyan__nodeX__Node__get_namespace_label</title>
<path fill="none" stroke="#838b8b" stroke-dasharray="5,2" d="M2579.83,-255.32C2428.54,-250.61 2229.52,-239.46 2055,-213.46 2004.37,-205.92 1949.09,-193.19 1902.74,-181.19"/>
<polygon fill="#838b8b" stroke="#838b8b" points="1903.8,-177.85 1893.24,-178.71 1902.03,-184.62 1903.8,-177.85"/>
</g>
<!-- pyan__nodeX__Node__get_short_name -->
<g id="node15" class="node">
<title>pyan__nodeX__Node__get_short_name</title>
<ellipse fill="#ff6565" fill-opacity="0.698039" stroke="black" cx="2820" cy="-150.16" rx="242.01" ry="30.05"/>
<text text-anchor="middle" x="2820" y="-154.11" font-family="Times,serif" font-size="14.00" fill="#000000">get_short_name</text>
<text text-anchor="middle" x="2820" y="-136.86" font-family="Times,serif" font-size="14.00" fill="#000000">(/home/lucianoleao/src/pyan/pyan/node.py:98)</text>
</g>
<!-- pyan__nodeX__Node&#45;&gt;pyan__nodeX__Node__get_short_name -->
<g id="edge9" class="edge">
<title>pyan__nodeX__Node&#45;&gt;pyan__nodeX__Node__get_short_name</title>
<path fill="none" stroke="#838b8b" stroke-dasharray="5,2" d="M2820,-229.18C2820,-217.7 2820,-204.33 2820,-191.94"/>
<polygon fill="#838b8b" stroke="#838b8b" points="2823.5,-191.97 2820,-181.97 2816.5,-191.97 2823.5,-191.97"/>
</g>
<!-- pyan__nodeX__Node__get_toplevel_namespace -->
<g id="node16" class="node">
<title>pyan__nodeX__Node__get_toplevel_namespace</title>
<ellipse fill="#ff6565" fill-opacity="0.698039" stroke="black" cx="2312" cy="-150.16" rx="248.37" ry="30.05"/>
<text text-anchor="middle" x="2312" y="-154.11" font-family="Times,serif" font-size="14.00" fill="#000000">get_toplevel_namespace</text>
<text text-anchor="middle" x="2312" y="-136.86" font-family="Times,serif" font-size="14.00" fill="#000000">(/home/lucianoleao/src/pyan/pyan/node.py:154)</text>
</g>
<!-- pyan__nodeX__Node&#45;&gt;pyan__nodeX__Node__get_toplevel_namespace -->
<g id="edge8" class="edge">
<title>pyan__nodeX__Node&#45;&gt;pyan__nodeX__Node__get_toplevel_namespace</title>
<path fill="none" stroke="#838b8b" stroke-dasharray="5,2" d="M2678.99,-234.74C2643.04,-228.26 2604.52,-220.94 2569,-213.46 2522.41,-203.64 2471.39,-191.55 2427.17,-180.64"/>
<polygon fill="#838b8b" stroke="#838b8b" points="2428.1,-177.27 2417.56,-178.26 2426.42,-184.06 2428.1,-177.27"/>
</g>
<!-- pyan__nodeX__Node____repr__&#45;&gt;pyan__nodeX__Node__get_name -->
<g id="edge21" class="edge">
<title>pyan__nodeX__Node____repr__&#45;&gt;pyan__nodeX__Node__get_name</title>
<path fill="none" stroke="#000000" d="M3328,-119.64C3328,-112.11 3328,-103.87 3328,-95.88"/>
<polygon fill="#000000" stroke="#000000" points="3331.5,-95.98 3328,-85.98 3324.5,-95.98 3331.5,-95.98"/>
</g>
<!-- pyan__nodeX__Node__get_annotated_name&#45;&gt;pyan__nodeX__Node__get_level -->
<g id="edge16" class="edge">
<title>pyan__nodeX__Node__get_annotated_name&#45;&gt;pyan__nodeX__Node__get_level</title>
<path fill="none" stroke="#000000" d="M4859,-119.64C4859,-112.11 4859,-103.87 4859,-95.88"/>
<polygon fill="#000000" stroke="#000000" points="4862.5,-95.98 4859,-85.98 4855.5,-95.98 4862.5,-95.98"/>
</g>
<!-- pyan__nodeX__Node__get_label&#45;&gt;pyan__nodeX__make_safe_label -->
<g id="edge19" class="edge">
<title>pyan__nodeX__Node__get_label&#45;&gt;pyan__nodeX__make_safe_label</title>
<path fill="none" stroke="#000000" d="M1386.17,-177.9C1433.03,-189.52 1489.14,-202.87 1540,-213.46 1573.41,-220.41 1609.42,-227.18 1643.6,-233.26"/>
<polygon fill="#000000" stroke="#000000" points="1642.68,-236.65 1653.14,-234.95 1643.9,-229.76 1642.68,-236.65"/>
</g>
<!-- pyan__nodeX__Node__get_label&#45;&gt;pyan__nodeX__Node__get_name -->
<g id="edge18" class="edge">
<title>pyan__nodeX__Node__get_label&#45;&gt;pyan__nodeX__Node__get_name</title>
<path fill="none" stroke="#000000" d="M1427.33,-125.41C1464.01,-120.21 1503.37,-115.31 1540,-112.1 2081.99,-64.69 2719.46,-55.45 3067.95,-54.34"/>
<polygon fill="#000000" stroke="#000000" points="3067.96,-57.84 3077.95,-54.31 3067.94,-50.84 3067.96,-57.84"/>
</g>
<!-- pyan__nodeX__Node__get_long_annotated_name&#45;&gt;pyan__nodeX__Node__get_level -->
<g id="edge17" class="edge">
<title>pyan__nodeX__Node__get_long_annotated_name&#45;&gt;pyan__nodeX__Node__get_level</title>
<path fill="none" stroke="#000000" d="M4478.97,-124.49C4550.98,-111.34 4639.64,-95.13 4713.22,-81.69"/>
<polygon fill="#000000" stroke="#000000" points="4713.73,-85.16 4722.94,-79.91 4712.47,-78.27 4713.73,-85.16"/>
</g>
<!-- pyan__nodeX__Node__get_namespace_label&#45;&gt;pyan__nodeX__make_safe_label -->
<g id="edge20" class="edge">
<title>pyan__nodeX__Node__get_namespace_label&#45;&gt;pyan__nodeX__make_safe_label</title>
<path fill="none" stroke="#000000" d="M1797,-180.46C1797,-191.93 1797,-205.29 1797,-217.69"/>
<polygon fill="#000000" stroke="#000000" points="1793.5,-217.66 1797,-227.66 1800.5,-217.66 1793.5,-217.66"/>
</g>
</g>
</svg>

