<?xml version="1.0" encoding="UTF-8" standalone="no"?>
<!DOCTYPE svg PUBLIC "-//W3C//DTD SVG 1.1//EN"
 "http://www.w3.org/Graphics/SVG/1.1/DTD/svg11.dtd">
<!-- Generated by graphviz version 9.0.0 (0)
 -->
<!-- Title: G Pages: 1 -->
<svg width="1154pt" height="544pt"
 viewBox="0.00 0.00 1154.00 544.27" xmlns="http://www.w3.org/2000/svg" xmlns:xlink="http://www.w3.org/1999/xlink">
<g id="graph0" class="graph" transform="scale(1 1) rotate(0) translate(4 540.27)">
<title>G</title>
<polygon fill="white" stroke="none" points="-4,4 -4,-540.27 1150,-540.27 1150,4 -4,4"/>
<g id="clust1" class="cluster">
<title>cluster_G</title>
<path fill="#808080" fill-opacity="0.094118" stroke="black" d="M20,-8C20,-8 1126,-8 1126,-8 1132,-8 1138,-14 1138,-20 1138,-20 1138,-516.27 1138,-516.27 1138,-522.27 1132,-528.27 1126,-528.27 1126,-528.27 20,-528.27 20,-528.27 14,-528.27 8,-522.27 8,-516.27 8,-516.27 8,-20 8,-20 8,-14 14,-8 20,-8"/>
</g>
<g id="clust2" class="cluster">
<title>cluster_animal</title>
<path fill="#808080" fill-opacity="0.094118" stroke="black" d="M28,-16C28,-16 362,-16 362,-16 368,-16 374,-22 374,-28 374,-28 374,-398.92 374,-398.92 374,-404.92 368,-410.92 362,-410.92 362,-410.92 28,-410.92 28,-410.92 22,-410.92 16,-404.92 16,-398.92 16,-398.92 16,-28 16,-28 16,-22 22,-16 28,-16"/>
<text text-anchor="middle" x="195" y="-393.62" font-family="Times,serif" font-size="14.00">animal</text>
</g>
<g id="clust3" class="cluster">
<title>cluster_animal__Animal</title>
<path fill="#808080" fill-opacity="0.094118" stroke="black" d="M859,-418.92C859,-418.92 1007,-418.92 1007,-418.92 1013,-418.92 1019,-424.92 1019,-430.92 1019,-430.92 1019,-508.27 1019,-508.27 1019,-514.27 1013,-520.27 1007,-520.27 1007,-520.27 859,-520.27 859,-520.27 853,-520.27 847,-514.27 847,-508.27 847,-508.27 847,-430.92 847,-430.92 847,-424.92 853,-418.92 859,-418.92"/>
<text text-anchor="middle" x="933" y="-502.97" font-family="Times,serif" font-size="14.00">animal.Animal</text>
</g>
<g id="clust4" class="cluster">
<title>cluster_animal__Cat</title>
<path fill="#808080" fill-opacity="0.094118" stroke="black" d="M394,-208.21C394,-208.21 740,-208.21 740,-208.21 746,-208.21 752,-214.21 752,-220.21 752,-220.21 752,-297.56 752,-297.56 752,-303.56 746,-309.56 740,-309.56 740,-309.56 394,-309.56 394,-309.56 388,-309.56 382,-303.56 382,-297.56 382,-297.56 382,-220.21 382,-220.21 382,-214.21 388,-208.21 394,-208.21"/>
<text text-anchor="middle" x="567" y="-292.26" font-family="Times,serif" font-size="14.00">animal.Cat</text>
</g>
<g id="clust5" class="cluster">
<title>cluster_animal__Dog</title>
<path fill="#808080" fill-opacity="0.094118" stroke="black" d="M772,-208.21C772,-208.21 1118,-208.21 1118,-208.21 1124,-208.21 1130,-214.21 1130,-220.21 1130,-220.21 1130,-297.56 1130,-297.56 1130,-303.56 1124,-309.56 1118,-309.56 1118,-309.56 772,-309.56 772,-309.56 766,-309.56 760,-303.56 760,-297.56 760,-297.56 760,-220.21 760,-220.21 760,-214.21 766,-208.21 772,-208.21"/>
<text text-anchor="middle" x="945" y="-292.26" font-family="Times,serif" font-size="14.00">animal.Dog</text>
</g>
<g id="clust6" class="cluster">
<title>cluster_animal__Mammal</title>
<path fill="#808080" fill-opacity="0.094118" stroke="black" d="M569,-418.92C569,-418.92 717,-418.92 717,-418.92 723,-418.92 729,-424.92 729,-430.92 729,-430.92 729,-508.27 729,-508.27 729,-514.27 723,-520.27 717,-520.27 717,-520.27 569,-520.27 569,-520.27 563,-520.27 557,-514.27 557,-508.27 557,-508.27 557,-430.92 557,-430.92 557,-424.92 563,-418.92 569,-418.92"/>
<text text-anchor="middle" x="643" y="-502.97" font-family="Times,serif" font-size="14.00">animal.Mammal</text>
</g>
<!-- animal -->
<g id="node1" class="node">
<title>animal</title>
<ellipse fill="#ffffff" fill-opacity="0.698039" stroke="black" cx="282" cy="-456.97" rx="44.89" ry="18"/>
<text text-anchor="middle" x="282" y="-452.29" font-family="Times,serif" font-size="14.00" fill="#000000">animal</text>
</g>
<!-- animal__main -->
<g id="node6" class="node">
<title>animal__main</title>
<ellipse fill="#fecccc" fill-opacity="0.698039" stroke="black" cx="282" cy="-347.61" rx="83.97" ry="30.05"/>
<text text-anchor="middle" x="282" y="-351.56" font-family="Times,serif" font-size="14.00" fill="#000000">main</text>
<text text-anchor="middle" x="282" y="-334.31" font-family="Times,serif" font-size="14.00" fill="#000000">(animal.py:21)</text>
</g>
<!-- animal&#45;&gt;animal__main -->
<g id="edge10" class="edge">
<title>animal&#45;&gt;animal__main</title>
<path fill="none" stroke="#000000" d="M282,-438.72C282,-425.43 282,-406.49 282,-389.41"/>
<polygon fill="#000000" stroke="#000000" points="285.5,-389.48 282,-379.48 278.5,-389.48 285.5,-389.48"/>
</g>
<!-- animal__Animal -->
<g id="node2" class="node">
<title>animal__Animal</title>
<ellipse fill="#fecccc" fill-opacity="0.698039" stroke="black" cx="192" cy="-54.05" rx="77.6" ry="30.05"/>
<text text-anchor="middle" x="192" y="-58" font-family="Times,serif" font-size="14.00" fill="#000000">Animal</text>
<text text-anchor="middle" x="192" y="-40.75" font-family="Times,serif" font-size="14.00" fill="#000000">(animal.py:1)</text>
</g>
<!-- animal__Cat -->
<g id="node3" class="node">
<title>animal__Cat</title>
<ellipse fill="#fecccc" fill-opacity="0.698039" stroke="black" cx="102" cy="-246.26" rx="77.6" ry="30.05"/>
<text text-anchor="middle" x="102" y="-250.21" font-family="Times,serif" font-size="14.00" fill="#000000">Cat</text>
<text text-anchor="middle" x="102" y="-232.96" font-family="Times,serif" font-size="14.00" fill="#000000">(animal.py:9)</text>
</g>
<!-- animal__Mammal -->
<g id="node5" class="node">
<title>animal__Mammal</title>
<ellipse fill="#fecccc" fill-opacity="0.698039" stroke="black" cx="192" cy="-150.16" rx="77.6" ry="30.05"/>
<text text-anchor="middle" x="192" y="-154.11" font-family="Times,serif" font-size="14.00" fill="#000000">Mammal</text>
<text text-anchor="middle" x="192" y="-136.86" font-family="Times,serif" font-size="14.00" fill="#000000">(animal.py:5)</text>
</g>
<!-- animal__Cat&#45;&gt;animal__Mammal -->
<g id="edge2" class="edge">
<title>animal__Cat&#45;&gt;animal__Mammal</title>
<path fill="none" stroke="#ff0000" d="M128.52,-217.53C137.67,-207.96 148.06,-197.1 157.75,-186.97"/>
<polygon fill="#ff0000" stroke="#ff0000" points="160.24,-189.42 164.63,-179.78 155.19,-184.58 160.24,-189.42"/>
</g>
<!-- animal__Dog -->
<g id="node4" class="node">
<title>animal__Dog</title>
<ellipse fill="#fecccc" fill-opacity="0.698039" stroke="black" cx="282" cy="-246.26" rx="83.97" ry="30.05"/>
<text text-anchor="middle" x="282" y="-250.21" font-family="Times,serif" font-size="14.00" fill="#000000">Dog</text>
<text text-anchor="middle" x="282" y="-232.96" font-family="Times,serif" font-size="14.00" fill="#000000">(animal.py:15)</text>
</g>
<!-- animal__Dog&#45;&gt;animal__Mammal -->
<g id="edge3" class="edge">
<title>animal__Dog&#45;&gt;animal__Mammal</title>
<path fill="none" stroke="#ff0000" d="M255.48,-217.53C246.33,-207.96 235.94,-197.1 226.25,-186.97"/>
<polygon fill="#ff0000" stroke="#ff0000" points="228.81,-184.58 219.37,-179.78 223.76,-189.42 228.81,-184.58"/>
</g>
<!-- animal__Mammal&#45;&gt;animal__Animal -->
<g id="edge1" class="edge">
<title>animal__Mammal&#45;&gt;animal__Animal</title>
<path fill="none" stroke="#ff0000" d="M192,-119.64C192,-112.11 192,-103.87 192,-95.88"/>
<polygon fill="#ff0000" stroke="#ff0000" points="195.5,-95.98 192,-85.98 188.5,-95.98 195.5,-95.98"/>
</g>
<!-- animal__main&#45;&gt;animal__Cat -->
<g id="edge4" class="edge">
<title>animal__main&#45;&gt;animal__Cat</title>
<path fill="none" stroke="#000000" d="M223.46,-325.81C211.8,-320.97 199.83,-315.48 189,-309.56 173.77,-301.24 158.07,-290.69 144.27,-280.65"/>
<polygon fill="#000000" stroke="#000000" points="146.38,-277.86 136.26,-274.72 142.21,-283.48 146.38,-277.86"/>
</g>
<!-- animal__main&#45;&gt;animal__Dog -->
<g id="edge7" class="edge">
<title>animal__main&#45;&gt;animal__Dog</title>
<path fill="none" stroke="#000000" d="M282,-317.07C282,-307.86 282,-297.54 282,-287.72"/>
<polygon fill="#000000" stroke="#000000" points="285.5,-288.03 282,-278.03 278.5,-288.03 285.5,-288.03"/>
</g>
<!-- animal__Cat____init__ -->
<g id="node8" class="node">
<title>animal__Cat____init__</title>
<ellipse fill="#ff9999" fill-opacity="0.698039" stroke="black" cx="660" cy="-246.26" rx="83.97" ry="30.05"/>
<text text-anchor="middle" x="660" y="-250.21" font-family="Times,serif" font-size="14.00" fill="#000000">__init__</text>
<text text-anchor="middle" x="660" y="-232.96" font-family="Times,serif" font-size="14.00" fill="#000000">(animal.py:10)</text>
</g>
<!-- animal__main&#45;&gt;animal__Cat____init__ -->
<g id="edge5" class="edge">
<title>animal__main&#45;&gt;animal__Cat____init__</title>
<path fill="none" stroke="#000000" d="M366.13,-345.74C424.21,-342.74 502.32,-333.89 567,-309.56 585.08,-302.76 603.13,-291.85 618.46,-281.05"/>
<polygon fill="#000000" stroke="#000000" points="620.38,-283.98 626.4,-275.27 616.26,-278.32 620.38,-283.98"/>
</g>
<!-- animal__Cat__name -->
<g id="node9" class="node">
<title>animal__Cat__name</title>
<ellipse fill="#ff9999" fill-opacity="0.698039" stroke="black" cx="474" cy="-246.26" rx="83.97" ry="30.05"/>
<text text-anchor="middle" x="474" y="-250.21" font-family="Times,serif" font-size="14.00" fill="#000000">name</text>
<text text-anchor="middle" x="474" y="-232.96" font-family="Times,serif" font-size="14.00" fill="#000000">(animal.py:12)</text>
</g>
<!-- animal__main&#45;&gt;animal__Cat__name -->
<g id="edge9" class="edge">
<title>animal__main&#45;&gt;animal__Cat__name</title>
<path fill="none" stroke="#000000" d="M341.23,-325.97C353.59,-321.05 366.38,-315.49 378,-309.56 394.85,-300.96 412.45,-290.13 427.91,-279.93"/>
<polygon fill="#000000" stroke="#000000" points="429.62,-283 435.98,-274.53 425.72,-277.19 429.62,-283"/>
</g>
<!-- animal__Dog____init__ -->
<g id="node10" class="node">
<title>animal__Dog____init__</title>
<ellipse fill="#ff9999" fill-opacity="0.698039" stroke="black" cx="1038" cy="-246.26" rx="83.97" ry="30.05"/>
<text text-anchor="middle" x="1038" y="-250.21" font-family="Times,serif" font-size="14.00" fill="#000000">__init__</text>
<text text-anchor="middle" x="1038" y="-232.96" font-family="Times,serif" font-size="14.00" fill="#000000">(animal.py:16)</text>
</g>
<!-- animal__main&#45;&gt;animal__Dog____init__ -->
<g id="edge8" class="edge">
<title>animal__main&#45;&gt;animal__Dog____init__</title>
<path fill="none" stroke="#000000" d="M366.22,-347.41C520.01,-347.97 840.12,-344.67 945,-309.56 963.62,-303.33 982.03,-292.31 997.49,-281.26"/>
<polygon fill="#000000" stroke="#000000" points="999.55,-284.09 1005.5,-275.32 995.38,-278.46 999.55,-284.09"/>
</g>
<!-- animal__Dog__name -->
<g id="node11" class="node">
<title>animal__Dog__name</title>
<ellipse fill="#ff9999" fill-opacity="0.698039" stroke="black" cx="852" cy="-246.26" rx="83.97" ry="30.05"/>
<text text-anchor="middle" x="852" y="-250.21" font-family="Times,serif" font-size="14.00" fill="#000000">name</text>
<text text-anchor="middle" x="852" y="-232.96" font-family="Times,serif" font-size="14.00" fill="#000000">(animal.py:18)</text>
</g>
<!-- animal__main&#45;&gt;animal__Dog__name -->
<g id="edge6" class="edge">
<title>animal__main&#45;&gt;animal__Dog__name</title>
<path fill="none" stroke="#000000" d="M365.86,-345.01C482.17,-341.94 686.04,-333.28 756,-309.56 775.19,-303.06 794.33,-291.85 810.41,-280.71"/>
<polygon fill="#000000" stroke="#000000" points="812.17,-283.75 818.27,-275.08 808.1,-278.06 812.17,-283.75"/>
</g>
<!-- animal__Animal__name -->
<g id="node7" class="node">
<title>animal__Animal__name</title>
<ellipse fill="#ff9999" fill-opacity="0.698039" stroke="black" cx="933" cy="-456.97" rx="77.6" ry="30.05"/>
<text text-anchor="middle" x="933" y="-460.92" font-family="Times,serif" font-size="14.00" fill="#000000">name</text>
<text text-anchor="middle" x="933" y="-443.67" font-family="Times,serif" font-size="14.00" fill="#000000">(animal.py:2)</text>
</g>
<!-- animal__Mammal__close -->
<g id="node12" class="node">
<title>animal__Mammal__close</title>
<ellipse fill="#ff9999" fill-opacity="0.698039" stroke="black" cx="643" cy="-456.97" rx="77.6" ry="30.05"/>
<text text-anchor="middle" x="643" y="-460.92" font-family="Times,serif" font-size="14.00" fill="#000000">close</text>
<text text-anchor="middle" x="643" y="-443.67" font-family="Times,serif" font-size="14.00" fill="#000000">(animal.py:6)</text>
</g>
</g>
</svg>

